<?xml version="1.0" encoding="utf-8"?>
<svg viewBox="76.3831 341.0846 668.1355 540.3338" xmlns="http://www.w3.org/2000/svg">
  <path d="M 0,0 27.163,7.379 -4.304,5.367 25.742,23.256 c 0,0 -22.014,-7.934 -33.989,-11.735 L 16.93,37.662 c 0,0 -18.12,-13.241 -29.131,-20.808 C -6.699,27.904 3.3,47.496 3.136,47.238 3.17,47.32 -10.482,31.694 -17.926,23.112 c 2.79,12.445 6.975,30.507 6.901,30.293 0,0.033 -7.083,-17.224 -11.841,-28.949 l -1.053,33.61 -6.037,-35.119 -9.81,32.098 3.698,-30.696 -20.373,25.965 14.465,-29.737 -26.841,16.616 C -60.333,28.205 -47.153,15.678 -36.593,11.085 -24.395,5.78 -15.683,0.481 0,0" style="fill:#fbbf16;fill-opacity:1;fill-rule:nonzero;stroke:none" id="path20" transform="matrix(2.3932759761810303, 0, 0, -2.3588740825653076, 616.5856933593751, 679.8500366210938)"/>
  <path d="m 0,0 -15.032,-24.293 c -29.317,19.499 -65.147,37.158 -97.476,23.715 -10.475,-4.693 -11.777,-5.311 -21.326,-12.661 -1.105,0.801 -6.525,0.71 -7.243,1.286 22.848,24.855 49.489,45.072 89.263,37.082 C -31.333,21.117 -13.484,11.173 0,0" style="fill:#4194d7;fill-opacity:1;fill-rule:nonzero;stroke:none" id="path24" transform="matrix(2.3932759761810303, 0, 0, -2.3588740825653076, 744.5185546875001, 553.9219360351562)"/>
  <path d="M 0,0 C 0,0 40.38,-25.627 73.517,-18.441 61.978,-31.676 52.678,-37.789 16.799,-37.692 -59.247,-37.586 -86.615,38.767 -151.278,38.6 c -9.939,-0.941 -18.898,-7.324 -22.298,-18.425 4.533,33.44 48.519,44.858 78.336,37.473 C -52.56,44.429 -40.678,18.604 0,0" style="fill:#4194d7;fill-opacity:1;fill-rule:nonzero;stroke:none" id="path28" transform="matrix(2.3932759761810303, 0, 0, -2.3588740825653076, 492.4907531738281, 639.9840698242188)"/>
  <path d="m 0,0 c 11.475,-23.663 33.536,-27.278 56.945,-25.392 18.124,2.075 25.659,9.083 30.487,12.459 2.167,0.032 5.442,-1.312 8.056,-2.773 C 72.848,-37.141 35.758,-48.672 5.87,-32.776 -19.402,-17.163 -20.041,13.643 -1.913,21.116 -5.445,17.488 -3.727,7.772 0,0" style="fill:#4194d7;fill-opacity:1;fill-rule:nonzero;stroke:none" id="path32" transform="matrix(2.3932759761810303, 0, 0, -2.3588740825653076, 111.99723052978516, 622.4144287109375)"/>
  <path d="m 0,0 c -4.021,-1.098 -7.737,-1.642 -11.184,-1.642 -5.675,0 -10.187,1.562 -13.518,4.703 -3.329,3.144 -5.012,7.412 -5.012,12.755 0,5.216 1.659,9.434 4.991,12.61 3.304,3.16 7.687,4.736 13.161,4.736 4.032,0 7.773,-0.432 11.196,-1.31 l 0.741,-6.538 h -1.857 l -0.078,0.387 c -0.395,1.961 -1.431,3.486 -3.134,4.537 -1.696,1.08 -3.908,1.614 -6.637,1.614 -3.749,0 -6.816,-1.493 -9.223,-4.517 -2.41,-3.003 -3.614,-6.845 -3.614,-11.501 0,-4.831 1.219,-8.73 3.712,-11.705 2.497,-2.992 5.753,-4.459 9.782,-4.459 5.429,0 8.579,2.094 9.444,6.346 l 0.091,0.359 h 1.885 z" style="fill:#231f20;fill-opacity:1;fill-rule:nonzero;stroke:none" id="path36" transform="matrix(2.3932759761810303, 0, 0, -2.3588740825653076, 148.46189880371094, 875.5466918945312)"/>
  <path d="m 0,0 c 3.36,3.232 5.058,7.433 5.058,12.531 0,2.635 -0.577,5.18 -1.721,7.606 -1.139,2.467 -2.664,4.473 -4.621,6.062 -3.024,2.494 -6.934,3.762 -11.71,3.762 -5.307,0 -9.622,-1.635 -13,-4.873 -3.368,-3.282 -5.064,-7.453 -5.064,-12.557 0,-5.098 1.696,-9.299 5.064,-12.531 3.378,-3.266 7.693,-4.87 13,-4.87 5.267,0 9.62,1.604 12.994,4.87 m -21.916,0.961 c -2.328,3.007 -3.469,6.871 -3.469,11.57 0,4.704 1.141,8.544 3.49,11.569 2.325,3.019 5.28,4.529 8.901,4.529 3.594,0 6.548,-1.51 8.882,-4.529 2.338,-3.025 3.495,-6.865 3.495,-11.569 0,-4.699 -1.157,-8.563 -3.495,-11.57 -2.334,-3.01 -5.288,-4.518 -8.882,-4.518 -3.621,0 -6.61,1.508 -8.922,4.518" style="fill:#231f20;fill-opacity:1;fill-rule:nonzero;stroke:none" id="path40" transform="matrix(2.3932759761810303, 0, 0, -2.3588740825653076, 252.3566436767578, 869.930419921875)"/>
  <path d="m 0,0 v -19.738 c 0,-1.768 0.256,-2.916 0.773,-3.455 0.529,-0.561 1.617,-0.83 3.315,-0.83 H 4.54 v -1.339 H -7.146 v 1.339 h 0.276 c 1.674,0 2.76,0.269 3.274,0.83 0.521,0.539 0.768,1.687 0.768,3.455 V 2.836 l -0.735,0.805 c -1.42,1.65 -2.735,2.47 -3.942,2.47 h -0.421 v 1.34 h 7.227 L 21.683,-16.664 V 1.834 c 0,1.775 -0.298,2.937 -0.809,3.485 -0.534,0.546 -1.65,0.792 -3.363,0.792 h -0.366 v 1.34 h 11.667 v -1.34 h -0.437 c -1.663,0 -2.771,-0.246 -3.309,-0.792 -0.517,-0.548 -0.779,-1.71 -0.779,-3.485 l -0.058,-28.19 z" style="fill:#231f20;fill-opacity:1;fill-rule:nonzero;stroke:none" id="path44" transform="matrix(2.3932759761810303, 0, 0, -2.3588740825653076, 312.8593444824219, 819.2469482421875)"/>
  <path d="m 0,0 h -13.983 v 1.339 h 0.369 c 1.696,0 2.807,0.269 3.347,0.83 0.533,0.539 0.782,1.687 0.782,3.455 v 21.572 c 0,1.776 -0.249,2.938 -0.782,3.486 -0.54,0.546 -1.651,0.792 -3.347,0.792 h -0.369 v 1.339 H 0 v -1.339 h -0.368 c -1.707,0 -2.817,-0.246 -3.356,-0.792 -0.547,-0.548 -0.806,-1.71 -0.806,-3.486 V 5.624 c 0,-1.768 0.259,-2.916 0.806,-3.455 0.539,-0.561 1.649,-0.83 3.356,-0.83 H 0 Z" style="fill:#231f20;fill-opacity:1;fill-rule:nonzero;stroke:none" id="path48" transform="matrix(2.3932759761810303, 0, 0, -2.3588740825653076, 446.4458312988281, 879.0734252929688)"/>
  <path d="m 0,0 c -4.01,-1.089 -7.715,-1.624 -11.156,-1.624 -5.702,0 -10.207,1.562 -13.53,4.716 -3.336,3.128 -5.002,7.375 -5.002,12.748 0,5.224 1.666,9.431 4.969,12.598 3.311,3.169 7.715,4.769 13.154,4.769 4.054,0 7.786,-0.459 11.219,-1.332 L 0.42,25.314 h -1.904 l -0.064,0.42 c -0.383,1.931 -1.443,3.459 -3.125,4.526 -1.718,1.066 -3.917,1.615 -6.647,1.615 -3.731,0 -6.811,-1.51 -9.237,-4.529 -2.406,-3.002 -3.619,-6.819 -3.619,-11.506 0,-4.821 1.228,-8.729 3.746,-11.698 2.485,-2.996 5.74,-4.47 9.757,-4.47 5.432,0 8.59,2.135 9.479,6.349 l 0.059,0.372 h 1.894 z" style="fill:#231f20;fill-opacity:1;fill-rule:nonzero;stroke:none" id="path52" transform="matrix(2.3932759761810303, 0, 0, -2.3588740825653076, 548.0712280273439, 877.5875854492188)"/>
  <path d="m 0,0 v -11.055 c 0,-1.426 0.699,-2.408 2.075,-2.972 1.369,-0.563 3.783,-0.835 7.258,-0.835 h 1.02 c 1.525,0 2.644,0.319 3.366,0.971 0.714,0.668 1.227,1.846 1.54,3.508 l 0.074,0.406 h 1.883 l -0.74,-7.159 c -3.111,0.206 -5.413,0.274 -6.923,0.274 -1.589,0 -3.49,0.074 -5.644,0.182 -2.161,0.129 -3.459,0.158 -3.909,0.158 h -9.475 v 1.338 h 0.451 c 1.614,0 2.693,0.293 3.251,0.857 0.554,0.572 0.829,1.716 0.829,3.429 v 21.572 c 0,1.794 -0.256,2.951 -0.751,3.485 -0.529,0.546 -1.629,0.792 -3.329,0.792 h -0.451 v 1.34 h 25.02 l 0.756,-6.068 h -1.894 l -0.063,0.451 c -0.298,1.84 -0.926,2.972 -1.857,3.357 -0.9,0.416 -3.333,0.619 -7.216,0.619 L 0,14.65 V 1.324 h 5.669 c 2.601,0 4.274,0.197 5.007,0.568 0.721,0.378 1.071,1.269 1.071,2.663 v 0.369 h 1.931 V -3.58 h -1.931 v 0.325 c 0,1.222 -0.29,2.107 -0.9,2.652 C 10.375,-0.205 8.638,0 5.669,0 Z" style="fill:#231f20;fill-opacity:1;fill-rule:nonzero;stroke:none" id="path56" transform="matrix(2.3932759761810303, 0, 0, -2.3588740825653076, 600.5526733398439, 840.0991821289062)"/>
  <path d="m 0,0 h -3.854 c -2.913,0 -4.903,-0.33 -6.011,-0.988 -1.098,-0.684 -1.834,-1.987 -2.161,-3.964 l -0.076,-0.428 h -1.99 l 0.912,7.632 C -8.973,1.854 -4.583,1.641 0,1.641 h 5.081 c 4.606,0 8.994,0.213 13.187,0.611 l 0.934,-7.632 h -1.987 l -0.097,0.428 c -0.334,1.977 -1.067,3.28 -2.168,3.964 C 13.845,-0.33 11.833,0 8.946,0 H 5.081 v -25.549 c 0,-1.767 0.331,-2.943 0.963,-3.455 0.633,-0.56 1.953,-0.83 4.007,-0.83 h 0.372 v -1.339 H -5.316 v 1.339 h 0.368 c 2.061,0 3.404,0.27 4.017,0.83 0.619,0.512 0.931,1.688 0.931,3.455 z" style="fill:#231f20;fill-opacity:1;fill-rule:nonzero;stroke:none" id="path60" transform="matrix(2.3932759761810303, 0, 0, -2.3588740825653076, 698.0741577148439, 805.5407104492188)"/>
  <path d="m 0,0 c 0,5.088 -0.096,5.904 -2.928,6.145 l -1.2,0.095 C -4.417,6.433 -4.32,7.296 -4.032,7.44 -1.632,7.345 0,7.296 2.016,7.296 3.937,7.296 5.568,7.345 7.969,7.44 8.257,7.296 8.353,6.433 8.065,6.24 L 6.865,6.145 C 4.032,5.904 3.937,5.088 3.937,0 v -17.09 c 0,-5.088 0.095,-5.76 2.928,-6.096 l 1.2,-0.144 c 0.288,-0.192 0.192,-1.056 -0.096,-1.2 -2.401,0.096 -4.032,0.144 -5.953,0.144 -2.016,0 -3.648,-0.048 -6.048,-0.144 -0.288,0.144 -0.385,0.912 -0.096,1.2 l 1.2,0.144 C -0.096,-22.85 0,-22.178 0,-17.09 Z" style="fill:#231f20;fill-opacity:1;fill-rule:nonzero;stroke:none" id="path64" transform="matrix(2.3932759761810303, 0, 0, -2.3588740825653076, 86.67972564697266, 360.10748291015625)"/>
  <path d="m 0,0 c 1.104,-2.256 2.16,-4.464 3.312,-6.576 h 0.096 c 1.296,2.256 2.496,4.752 3.696,7.2 l 4.513,9.169 c 2.16,4.369 3.552,7.009 3.648,9.217 1.632,-0.144 2.64,-0.144 3.6,-0.144 1.2,0 2.784,0.048 4.273,0.144 0.288,-0.192 0.288,-1.008 0.048,-1.2 l -1.008,-0.096 c -3.025,-0.288 -3.408,-1.2 -3.361,-4.561 0.097,-5.088 0.144,-13.969 0.529,-20.882 0.143,-2.4 0.095,-3.696 2.352,-3.888 l 1.536,-0.144 c 0.288,-0.288 0.24,-1.008 -0.096,-1.2 -1.969,0.096 -3.936,0.144 -5.665,0.144 -1.68,0 -3.84,-0.048 -5.808,-0.144 -0.336,0.24 -0.384,0.912 -0.096,1.2 l 1.392,0.144 c 2.352,0.24 2.352,1.008 2.352,4.08 l -0.144,20.018 h -0.096 c -0.336,-0.528 -2.16,-4.368 -3.12,-6.24 L 7.681,-2.16 C 5.521,-6.384 3.36,-10.896 2.496,-13.105 2.4,-13.249 2.208,-13.297 2.016,-13.297 c -0.096,0 -0.336,0.048 -0.432,0.192 -0.816,2.544 -3.12,7.249 -4.225,9.601 l -4.32,9.265 c -1.008,2.208 -2.016,4.704 -3.072,6.912 h -0.096 c -0.192,-2.976 -0.336,-5.76 -0.48,-8.545 -0.144,-2.928 -0.336,-7.2 -0.336,-11.28 0,-3.553 0.288,-4.321 2.16,-4.465 l 1.824,-0.144 c 0.336,-0.288 0.288,-1.056 -0.048,-1.2 -1.632,0.096 -3.504,0.144 -5.328,0.144 -1.537,0 -3.265,-0.048 -4.897,-0.144 -0.287,0.24 -0.384,0.96 -0.096,1.2 l 1.057,0.144 c 2.016,0.288 2.688,0.576 2.976,3.936 0.288,3.169 0.527,5.809 0.816,10.561 0.24,3.985 0.432,8.065 0.528,10.705 0.096,3.025 -0.288,3.745 -3.216,4.129 l -0.769,0.096 c -0.24,0.288 -0.191,1.008 0.192,1.2 1.44,-0.096 2.593,-0.144 3.793,-0.144 1.104,0 2.4,0 3.984,0.144 -0.192,-1.872 1.008,-4.848 2.496,-7.921 z" style="fill:#231f20;fill-opacity:1;fill-rule:nonzero;stroke:none" id="path68" transform="matrix(2.3932759761810303, 0, 0, -2.3588740825653076, 169.85421752929688, 387.39794921875)"/>
  <path d="m 0,0 c -2.304,0 -2.4,-0.096 -2.4,-1.536 v -6.769 c 0,-5.04 0.24,-5.712 2.928,-6 l 1.392,-0.144 c 0.288,-0.192 0.192,-1.056 -0.096,-1.2 -2.592,0.096 -4.224,0.144 -6.096,0.144 -2.064,0 -3.697,-0.097 -5.569,-0.144 -0.288,0.144 -0.384,0.912 -0.096,1.2 l 0.816,0.144 c 2.688,0.48 2.785,0.96 2.785,6 V 8.977 c 0,5.04 -0.336,5.856 -2.832,6.048 l -1.249,0.096 c -0.288,0.192 -0.192,1.056 0.096,1.2 2.352,-0.048 3.985,-0.144 6.049,-0.144 1.872,0 3.504,0.049 5.568,0.144 0.288,-0.144 0.384,-1.008 0.096,-1.2 L 0.48,15.025 C -2.304,14.737 -2.4,14.017 -2.4,8.977 V 3.456 C -2.4,1.968 -2.304,1.92 0,1.92 h 13.729 c 2.305,0 2.4,0.048 2.4,1.536 v 5.521 c 0,5.04 -0.095,5.76 -2.927,6.048 l -0.912,0.096 c -0.289,0.192 -0.193,1.056 0.095,1.2 2.208,-0.095 3.84,-0.144 5.809,-0.144 1.872,0 3.504,0.049 5.664,0.144 0.288,-0.144 0.385,-1.008 0.097,-1.2 l -1.009,-0.096 c -2.784,-0.288 -2.88,-1.008 -2.88,-6.048 V -8.305 c 0,-5.04 0.096,-5.664 2.88,-6 l 1.152,-0.144 c 0.288,-0.192 0.193,-1.056 -0.096,-1.2 -2.304,0.096 -3.936,0.144 -5.808,0.144 -1.969,0 -3.696,-0.048 -5.809,-0.144 -0.288,0.144 -0.384,0.912 -0.095,1.2 l 0.912,0.144 c 2.927,0.48 2.927,0.96 2.927,6 v 6.769 c 0,1.44 -0.095,1.536 -2.4,1.536 z" style="fill:#231f20;fill-opacity:1;fill-rule:nonzero;stroke:none" id="path72" transform="matrix(2.3932759761810303, 0, 0, -2.3588740825653076, 274.1591491699219, 381.05615234375)"/>
  <path d="M 0,0 C 0,5.088 -0.096,5.904 -2.929,6.145 L -4.128,6.24 C -4.416,6.433 -4.32,7.296 -4.032,7.44 -1.632,7.345 0,7.296 2.017,7.296 3.937,7.296 5.568,7.345 7.969,7.44 8.257,7.296 8.353,6.433 8.064,6.24 L 6.864,6.145 C 4.032,5.904 3.937,5.088 3.937,0 v -17.09 c 0,-5.088 0.095,-5.76 2.927,-6.096 l 1.2,-0.144 c 0.289,-0.192 0.193,-1.056 -0.095,-1.2 -2.401,0.096 -4.032,0.144 -5.952,0.144 -2.017,0 -3.649,-0.048 -6.049,-0.144 -0.288,0.144 -0.384,0.912 -0.096,1.2 l 1.199,0.144 C -0.096,-22.85 0,-22.178 0,-17.09 Z" style="fill:#231f20;fill-opacity:1;fill-rule:nonzero;stroke:none" id="path76" transform="matrix(2.3932759761810303, 0, 0, -2.3588740825653076, 365.9462890625, 360.10748291015625)"/>
  <path d="m 0,0 c 3.504,2.736 7.969,4.08 12.961,4.08 2.592,0 6.24,-0.528 8.496,-1.152 0.576,-0.144 0.912,-0.24 1.345,-0.192 0.048,-1.104 0.288,-4.128 0.672,-7.056 -0.241,-0.337 -0.96,-0.385 -1.296,-0.097 -0.721,3.265 -2.881,7.009 -9.841,7.009 -7.345,0 -13.585,-4.656 -13.585,-14.593 0,-10.081 6.384,-15.649 14.257,-15.649 6.192,0 8.928,4.032 10.033,6.864 0.336,0.24 1.056,0.144 1.248,-0.192 -0.336,-2.496 -1.585,-5.665 -2.305,-6.577 -0.576,-0.095 -1.152,-0.288 -1.679,-0.48 -1.057,-0.383 -4.513,-1.104 -7.585,-1.104 -4.321,0 -8.45,0.865 -11.953,3.217 -3.84,2.64 -6.817,7.008 -6.817,13.201 0,5.328 2.401,9.888 6.049,12.721" style="fill:#231f20;fill-opacity:1;fill-rule:nonzero;stroke:none" id="path80" transform="matrix(2.3932759761810303, 0, 0, -2.3588740825653076, 423.95977783203125, 350.7087707519531)"/>
  <path d="M 0,0 C 0,5.088 -0.096,5.904 -2.929,6.145 L -4.128,6.24 C -4.416,6.433 -4.32,7.296 -4.032,7.44 -1.632,7.345 0,7.296 2.017,7.296 3.937,7.296 5.568,7.345 7.969,7.44 8.257,7.296 8.353,6.433 8.064,6.24 L 6.864,6.145 C 4.032,5.904 3.937,5.088 3.937,0 v -17.09 c 0,-5.088 0.095,-5.76 2.927,-6.096 l 1.2,-0.144 c 0.289,-0.192 0.193,-1.056 -0.095,-1.2 -2.401,0.096 -4.032,0.144 -5.952,0.144 -2.017,0 -3.649,-0.048 -6.049,-0.144 -0.288,0.144 -0.384,0.912 -0.096,1.2 l 1.199,0.144 C -0.096,-22.85 0,-22.178 0,-17.09 Z" style="fill:#231f20;fill-opacity:1;fill-rule:nonzero;stroke:none" id="path84" transform="matrix(2.3932759761810303, 0, 0, -2.3588740825653076, 513.4481811523438, 360.10748291015625)"/>
  <path d="m 0,0 c -2.305,0 -2.4,-0.096 -2.4,-1.536 v -6.769 c 0,-5.04 0.24,-5.712 2.927,-6 l 1.393,-0.144 c 0.288,-0.192 0.192,-1.056 -0.096,-1.2 -2.593,0.096 -4.224,0.144 -6.096,0.144 -2.065,0 -3.697,-0.097 -5.569,-0.144 -0.288,0.144 -0.385,0.912 -0.097,1.2 l 0.817,0.144 c 2.688,0.48 2.784,0.96 2.784,6 V 8.977 c 0,5.04 -0.336,5.856 -2.832,6.048 l -1.248,0.096 c -0.288,0.192 -0.192,1.056 0.096,1.2 2.352,-0.048 3.984,-0.144 6.049,-0.144 1.872,0 3.503,0.049 5.568,0.144 0.288,-0.144 0.384,-1.008 0.096,-1.2 L 0.479,15.025 C -2.305,14.737 -2.4,14.017 -2.4,8.977 V 3.456 C -2.4,1.968 -2.305,1.92 0,1.92 h 13.729 c 2.304,0 2.4,0.048 2.4,1.536 v 5.521 c 0,5.04 -0.096,5.76 -2.928,6.048 l -0.912,0.096 c -0.288,0.192 -0.192,1.056 0.096,1.2 2.208,-0.095 3.84,-0.144 5.808,-0.144 1.872,0 3.504,0.049 5.664,0.144 0.289,-0.144 0.385,-1.008 0.097,-1.2 l -1.009,-0.096 c -2.784,-0.288 -2.88,-1.008 -2.88,-6.048 V -8.305 c 0,-5.04 0.096,-5.664 2.88,-6 l 1.153,-0.144 c 0.288,-0.192 0.192,-1.056 -0.096,-1.2 -2.305,0.096 -3.937,0.144 -5.809,0.144 -1.968,0 -3.696,-0.048 -5.808,-0.144 -0.288,0.144 -0.384,0.912 -0.096,1.2 l 0.912,0.144 c 2.928,0.48 2.928,0.96 2.928,6 v 6.769 c 0,1.44 -0.096,1.536 -2.4,1.536 z" style="fill:#231f20;fill-opacity:1;fill-rule:nonzero;stroke:none" id="path88" transform="matrix(2.3932759761810303, 0, 0, -2.3588740825653076, 581.8013916015626, 381.05615234375)"/>
  <path d="m 0,0 c 0,2.976 -0.097,8.497 -0.912,9.937 -0.337,0.576 -1.2,0.912 -2.401,1.008 l -1.2,0.096 c -0.288,0.336 -0.192,0.96 0.096,1.152 1.824,-0.096 3.601,-0.144 5.473,-0.144 2.016,0 3.312,0.048 5.04,0.144 0.384,-0.24 0.336,-0.864 0.096,-1.152 L 5.04,10.945 C 3.84,10.849 2.928,10.417 2.64,9.793 1.968,8.208 1.968,2.688 1.968,0 v -5.424 c 0,-4.177 -0.672,-8.593 -3.361,-11.473 -2.064,-2.257 -5.616,-3.505 -9.169,-3.505 -3.312,0 -6.624,0.624 -8.976,2.64 -2.544,2.113 -3.744,5.617 -3.744,11.329 V 4.896 c 0,4.993 -0.097,5.809 -2.881,6.049 l -1.2,0.096 c -0.287,0.192 -0.192,1.008 0.096,1.152 2.401,-0.096 4.033,-0.144 5.953,-0.144 1.968,0 3.552,0.048 5.904,0.144 0.288,-0.144 0.385,-0.96 0.097,-1.152 l -1.153,-0.096 c -2.784,-0.24 -2.88,-1.056 -2.88,-6.049 V -5.473 c 0,-7.728 2.4,-12.817 9.744,-12.817 6.961,0 9.602,5.473 9.602,12.769 z" style="fill:#231f20;fill-opacity:1;fill-rule:nonzero;stroke:none" id="path92" transform="matrix(2.3932759761810303, 0, 0, -2.3588740825653076, 728.3873901367189, 371.3177490234375)"/>
</svg>