<?xml version="1.0" encoding="utf-8"?>
<svg viewBox="77.0755 490.4678 667.4431 238.4296" xmlns="http://www.w3.org/2000/svg">
  <path d="M 0,0 27.163,7.379 -4.304,5.367 25.742,23.256 c 0,0 -22.014,-7.934 -33.989,-11.735 L 16.93,37.662 c 0,0 -18.12,-13.241 -29.131,-20.808 C -6.699,27.904 3.3,47.496 3.136,47.238 3.17,47.32 -10.482,31.694 -17.926,23.112 c 2.79,12.445 6.975,30.507 6.901,30.293 0,0.033 -7.083,-17.224 -11.841,-28.949 l -1.053,33.61 -6.037,-35.119 -9.81,32.098 3.698,-30.696 -20.373,25.965 14.465,-29.737 -26.841,16.616 C -60.333,28.205 -47.153,15.678 -36.593,11.085 -24.395,5.78 -15.683,0.481 0,0" style="fill:#fbbf16;fill-opacity:1;fill-rule:nonzero;stroke:none" id="path20" transform="matrix(2.3932759761810303, 0, 0, -2.3588740825653076, 616.585693359375, 679.8500366210938)"/>
  <path d="m 0,0 -15.032,-24.293 c -29.317,19.499 -65.147,37.158 -97.476,23.715 -10.475,-4.693 -11.777,-5.311 -21.326,-12.661 -1.105,0.801 -6.525,0.71 -7.243,1.286 22.848,24.855 49.489,45.072 89.263,37.082 C -31.333,21.117 -13.484,11.173 0,0" style="fill:#4194d7;fill-opacity:1;fill-rule:nonzero;stroke:none" id="path24" transform="matrix(2.3932759761810303, 0, 0, -2.3588740825653076, 744.5185546875, 553.9219360351562)"/>
  <path d="M 0,0 C 0,0 40.38,-25.627 73.517,-18.441 61.978,-31.676 52.678,-37.789 16.799,-37.692 -59.247,-37.586 -86.615,38.767 -151.278,38.6 c -9.939,-0.941 -18.898,-7.324 -22.298,-18.425 4.533,33.44 48.519,44.858 78.336,37.473 C -52.56,44.429 -40.678,18.604 0,0" style="fill:#4194d7;fill-opacity:1;fill-rule:nonzero;stroke:none" id="path28" transform="matrix(2.3932759761810303, 0, 0, -2.3588740825653076, 492.4907531738281, 639.9840698242188)"/>
  <path d="m 0,0 c 11.475,-23.663 33.536,-27.278 56.945,-25.392 18.124,2.075 25.659,9.083 30.487,12.459 2.167,0.032 5.442,-1.312 8.056,-2.773 C 72.848,-37.141 35.758,-48.672 5.87,-32.776 -19.402,-17.163 -20.041,13.643 -1.913,21.116 -5.445,17.488 -3.727,7.772 0,0" style="fill:#4194d7;fill-opacity:1;fill-rule:nonzero;stroke:none" id="path32" transform="matrix(2.3932759761810303, 0, 0, -2.3588740825653076, 111.99723052978516, 622.4144287109375)"/>
</svg>